<?xml version="1.0" encoding="UTF-8" standalone="no"?>
<!-- Created with Inkscape (http://www.inkscape.org/) -->

<svg
   xmlns:dc="http://purl.org/dc/elements/1.1/"
   xmlns:cc="http://creativecommons.org/ns#"
   xmlns:rdf="http://www.w3.org/1999/02/22-rdf-syntax-ns#"
   xmlns:svg="http://www.w3.org/2000/svg"
   xmlns="http://www.w3.org/2000/svg"
   xmlns:sodipodi="http://sodipodi.sourceforge.net/DTD/sodipodi-0.dtd"
   xmlns:inkscape="http://www.inkscape.org/namespaces/inkscape"
   width="297mm"
   height="210mm"
   viewBox="0 0 297 210"
   version="1.1"
   id="svg8"
   inkscape:version="0.92.3 (2405546, 2018-03-11)"
   sodipodi:docname="burrito_logo_0_1_beta.svg"
   inkscape:export-filename="C:\Users\Mark\Source\Repos\scripture-burrito\logo\burrito_logo.png"
   inkscape:export-xdpi="149.96353"
   inkscape:export-ydpi="149.96353">
  <defs
     id="defs2" />
  <sodipodi:namedview
     id="base"
     pagecolor="#ffffff"
     bordercolor="#666666"
     borderopacity="1.0"
     inkscape:pageopacity="0.0"
     inkscape:pageshadow="2"
     inkscape:zoom="1.0331349"
     inkscape:cx="370.57807"
     inkscape:cy="396.85039"
     inkscape:document-units="mm"
     inkscape:current-layer="layer1"
     showgrid="false"
     inkscape:window-width="1920"
     inkscape:window-height="906"
     inkscape:window-x="0"
     inkscape:window-y="40"
     inkscape:window-maximized="1" />
  <metadata
     id="metadata5">
    <rdf:RDF>
      <cc:Work
         rdf:about="">
        <dc:format>image/svg+xml</dc:format>
        <dc:type
           rdf:resource="http://purl.org/dc/dcmitype/StillImage" />
        <dc:title></dc:title>
      </cc:Work>
    </rdf:RDF>
  </metadata>
  <g
     inkscape:label="Calque 1"
     inkscape:groupmode="layer"
     id="layer1"
     transform="translate(0,-87)">
    <rect
       style="fill:#ffff00;stroke:none;stroke-width:1;stroke-miterlimit:4;stroke-dasharray:none"
       id="rect851"
       width="126.84647"
       height="17.55405"
       x="83.790855"
       y="218.17453" />
    <path
       inkscape:connector-curvature="0"
       id="path4636"
       style="font-style:normal;font-variant:normal;font-weight:normal;font-stretch:normal;font-size:37.99416733px;line-height:1.25;font-family:Brandish;-inkscape-font-specification:Brandish;letter-spacing:0px;word-spacing:0px;fill:#800000;fill-opacity:1;stroke:none;stroke-width:0.17520428"
       d="m 80.276757,168.59402 v 5.66747 q -1.519766,0.37994 -3.102857,0.37994 -5.224198,0 -8.896967,-3.70443 -3.67277,-3.70443 -3.67277,-8.96029 0,-5.16088 3.67277,-8.73866 3.704431,-3.57779 8.928629,-3.57779 1.393119,0 2.944548,0.41161 v 5.54081 q -1.298134,-0.60157 -2.849563,-0.60157 -2.881224,0 -5.034227,1.89971 -2.27965,2.02635 -2.27965,5.16087 0,3.19784 2.27965,5.25586 2.121341,1.93137 5.034227,1.93137 1.583091,0 2.97621,-0.6649 z" />
    <path
       inkscape:connector-curvature="0"
       id="path4638"
       style="font-style:normal;font-variant:normal;font-weight:normal;font-stretch:normal;font-size:37.99416733px;line-height:1.25;font-family:Brandish;-inkscape-font-specification:Brandish;letter-spacing:0px;word-spacing:0px;fill:#800000;fill-opacity:1;stroke:none;stroke-width:0.17520428"
       d="m 89.594231,174.76808 -5.920757,-0.0317 v -13.80454 q 0,-3.16618 1.139825,-5.4775 1.171487,-2.31131 3.704431,-4.02105 1.551429,-1.04484 2.912886,-1.4881 1.361458,-0.47493 2.97621,-0.47493 0.411603,0 0.981511,0.0633 0.569917,0.0317 1.298134,0.15831 v 5.60413 q -0.791547,-0.22163 -1.646409,-0.22163 -1.646414,0 -3.166181,1.10817 -1.108163,0.79154 -1.709737,1.80472 -0.569913,1.01318 -0.569913,2.34297 z" />
    <path
       inkscape:connector-curvature="0"
       id="path4640"
       style="font-style:normal;font-variant:normal;font-weight:normal;font-stretch:normal;font-size:37.99416733px;line-height:1.25;font-family:Brandish;-inkscape-font-specification:Brandish;letter-spacing:0px;word-spacing:0px;fill:#800000;fill-opacity:1;stroke:none;stroke-width:0.17520428"
       d="m 101.0673,151.30668 h 5.38251 v 23.39807 h -5.38251 z m 2.75458,-1.55143 q -1.51977,0 -2.37463,-0.98152 -0.85487,-0.98151 -0.85487,-2.31131 0,-1.29813 0.8232,-2.21633 0.85487,-0.91819 2.4063,-0.91819 1.39312,0 2.24799,1.01318 0.75988,0.91819 0.75988,2.21633 0,1.26647 -0.8232,2.24798 -0.79155,0.94986 -2.18467,0.94986 z" />
    <path
       inkscape:connector-curvature="0"
       id="path4642"
       style="font-style:normal;font-variant:normal;font-weight:normal;font-stretch:normal;font-size:37.99416733px;line-height:1.25;font-family:Brandish;-inkscape-font-specification:Brandish;letter-spacing:0px;word-spacing:0px;fill:#800000;fill-opacity:1;stroke:none;stroke-width:0.17520428"
       d="m 115.326,181.5437 h -5.12922 v -19.75696 q 0,-4.78094 3.57779,-8.0421 3.60944,-3.29283 8.51702,-3.29283 4.87592,0 8.32706,3.45114 3.45114,3.45113 3.45114,8.32705 0,3.41948 -1.29814,5.85743 -1.29813,2.4063 -4.14769,4.21102 -3.13452,1.9947 -6.33237,1.9947 -2.69125,0 -5.50915,-1.42478 v -6.14239 q 0.88653,1.10816 2.34297,1.7414 1.48811,0.63323 3.10286,0.63323 2.78624,0 4.62262,-1.64641 2.08968,-1.86805 2.08968,-5.28752 0,-2.72292 -1.99469,-4.65429 -1.99469,-1.93137 -4.78093,-1.93137 -2.84957,0 -4.84426,1.96303 -1.99469,1.96304 -1.99469,4.8126 z" />
    <path
       inkscape:connector-curvature="0"
       id="path4644"
       style="font-style:normal;font-variant:normal;font-weight:normal;font-stretch:normal;font-size:37.99416733px;line-height:1.25;font-family:Brandish;-inkscape-font-specification:Brandish;letter-spacing:0px;word-spacing:0px;fill:#800000;fill-opacity:1;stroke:none;stroke-width:0.17520428"
       d="m 136.82635,143.10627 h 5.31918 v 6.33236 h 3.67277 v 5.57248 h -3.67277 v 10.51172 q 0,0.85487 0.28496,1.4881 0.31661,0.63324 0.98151,1.29814 1.26647,1.26647 2.97621,1.26647 0.56991,0 0.88653,-0.0633 v 5.19253 q -0.22163,0 -0.50659,0 -0.25329,0.0317 -0.34828,0.0317 -1.42478,0 -2.78624,-0.44326 -1.67807,-0.53825 -3.70443,-1.93137 -1.23481,-0.85487 -2.12134,-2.65959 -0.98151,-1.9947 -0.98151,-4.05271 z" />
    <path
       inkscape:connector-curvature="0"
       id="path4646"
       style="font-style:normal;font-variant:normal;font-weight:normal;font-stretch:normal;font-size:37.99416733px;line-height:1.25;font-family:Brandish;-inkscape-font-specification:Brandish;letter-spacing:0px;word-spacing:0px;fill:#800000;fill-opacity:1;stroke:none;stroke-width:0.17520428"
       d="m 150.60715,150.07187 h 5.54081 v 14.18449 q 0,2.02635 1.67808,3.35615 1.67807,1.32979 3.8944,1.32979 2.18466,0 3.79942,-1.23481 1.64641,-1.26647 1.64641,-3.26116 v -14.3428 h 5.79411 v 14.0895 q 0,4.33767 -3.76775,7.56717 -3.51446,3.03954 -7.56718,3.03954 -4.59096,0 -7.82046,-3.00787 -3.19784,-3.03954 -3.19784,-7.44053 z" />
    <path
       inkscape:connector-curvature="0"
       id="path4648"
       style="font-style:normal;font-variant:normal;font-weight:normal;font-stretch:normal;font-size:37.99416733px;line-height:1.25;font-family:Brandish;-inkscape-font-specification:Brandish;letter-spacing:0px;word-spacing:0px;fill:#800000;fill-opacity:1;stroke:none;stroke-width:0.17520428"
       d="m 184.04428,174.76808 -5.92076,-0.0317 v -13.80454 q 0,-3.16618 1.13983,-5.4775 1.17148,-2.31131 3.70443,-4.02105 1.55143,-1.04484 2.91288,-1.4881 1.36146,-0.47493 2.97621,-0.47493 0.41161,0 0.98152,0.0633 0.56991,0.0317 1.29813,0.15831 v 5.60413 q -0.79154,-0.22163 -1.64641,-0.22163 -1.64641,0 -3.16618,1.10817 -1.10816,0.79154 -1.70974,1.80472 -0.56991,1.01318 -0.56991,2.34297 z" />
    <path
       inkscape:connector-curvature="0"
       id="path4650"
       style="font-style:normal;font-variant:normal;font-weight:normal;font-stretch:normal;font-size:37.99416733px;line-height:1.25;font-family:Brandish;-inkscape-font-specification:Brandish;letter-spacing:0px;word-spacing:0px;fill:#800000;fill-opacity:1;stroke:none;stroke-width:0.17520428"
       d="m 211.59273,160.55192 q -0.69656,-2.53294 -2.65959,-3.95772 -1.93137,-1.42478 -4.62263,-1.42478 -2.97621,0 -5.19253,2.153 -2.18467,2.12134 -2.18467,5.03423 0,0.50659 0.0317,0.75988 0.34828,3.13452 2.62793,4.93924 2.02636,1.61475 4.8126,1.61475 1.58309,0 2.97621,-0.53825 1.39312,-0.56991 2.37463,-1.67807 l 3.60945,3.73609 q -1.93137,1.96303 -4.05271,2.84956 -2.12134,0.88653 -4.90758,0.88653 -5.2242,0 -8.96029,-3.60944 -3.7361,-3.60945 -3.7361,-8.77032 0,-5.2242 3.60945,-8.89697 3.64111,-3.70443 8.83364,-3.70443 5.2242,0 9.1186,3.8944 3.92607,3.86274 3.92607,9.02362 0,0.56991 0,1.10816 -0.095,0.47493 -0.12665,0.69656 H 199.213 q -0.56991,0 -0.72822,-0.47493 -0.15831,-0.47492 -0.15831,-1.29813 0,-0.34828 0,-0.50659 0,-0.4116 0,-0.63324 0,-0.60157 0.12665,-0.88653 0.12665,-0.31662 0.60157,-0.31662 z" />
    <path
       inkscape:connector-curvature="0"
       id="path4662"
       style="font-style:normal;font-variant:normal;font-weight:normal;font-stretch:normal;font-size:medium;line-height:1.25;font-family:Brandish;-inkscape-font-specification:'Brandish Italic';letter-spacing:0px;word-spacing:0px;fill:#000000;fill-opacity:1;stroke:none;stroke-width:0.142509"
       d="m 95.660826,185.6637 q 4.971964,0 8.487184,3.54689 3.54689,3.51522 3.54689,8.4872 0,4.87697 -3.35688,8.36053 -3.35688,3.45188 -8.202164,3.45188 -5.035317,0 -8.677214,-3.16687 -3.768571,-3.26187 -3.768571,-8.07551 v -20.42628 h 5.003649 v 20.26794 q 0,2.72351 2.121801,4.65529 2.153469,1.90012 4.940311,1.90012 0.253349,0 0.380024,0 0.190015,0 0.633375,-0.0633 2.533475,-0.38003 4.116899,-2.43849 1.58344,-2.09013 1.58344,-4.7503 0,-0.69671 -0.15835,-1.55176 -0.50669,-2.40682 -2.470147,-3.73691 -1.741771,-1.20341 -4.11691,-1.20341 -1.64677,0 -3.135197,0.63338 -1.456759,0.6017 -2.37515,1.74177 v -6.11205 q 1.520096,-0.85505 2.660168,-1.17174 1.140072,-0.34835 2.786842,-0.34835 z" />
    <path
       inkscape:connector-curvature="0"
       id="path4664"
       style="font-style:normal;font-variant:normal;font-weight:normal;font-stretch:normal;font-size:medium;line-height:1.25;font-family:Brandish;-inkscape-font-specification:'Brandish Italic';letter-spacing:0px;word-spacing:0px;fill:#000000;fill-opacity:1;stroke:none;stroke-width:0.142509"
       d="m 110.30261,184.87198 h 5.54202 v 14.18756 q 0,2.0268 1.67844,3.35688 1.67844,1.33008 3.89524,1.33008 2.18514,0 3.80024,-1.23508 1.64677,-1.26674 1.64677,-3.26187 v -14.3459 h 5.79537 v 14.09255 q 0,4.33861 -3.76857,7.56881 -3.51522,3.0402 -7.56881,3.0402 -4.59196,0 -7.82216,-3.00853 -3.19854,-3.04019 -3.19854,-7.44213 z" />
    <path
       inkscape:connector-curvature="0"
       id="path4666"
       style="font-style:normal;font-variant:normal;font-weight:normal;font-stretch:normal;font-size:medium;line-height:1.25;font-family:Brandish;-inkscape-font-specification:'Brandish Italic';letter-spacing:0px;word-spacing:0px;fill:#000000;fill-opacity:1;stroke:none;stroke-width:0.142509"
       d="m 141.62985,209.57354 -5.92204,-0.0317 V 195.7343 q 0,-3.16687 1.14007,-5.47868 1.17174,-2.31181 3.70524,-4.02192 1.55176,-1.04506 2.91351,-1.48843 1.36176,-0.47503 2.97686,-0.47503 0.41169,0 0.98173,0.0633 0.57003,0.0317 1.29841,0.15835 v 5.60535 q -0.79171,-0.22168 -1.64677,-0.22168 -1.64677,0 -3.16686,1.1084 -1.10841,0.79172 -1.71011,1.80512 -0.57004,1.01339 -0.57004,2.34348 z" />
    <path
       inkscape:connector-curvature="0"
       id="path4668"
       style="font-style:normal;font-variant:normal;font-weight:normal;font-stretch:normal;font-size:medium;line-height:1.25;font-family:Brandish;-inkscape-font-specification:'Brandish Italic';letter-spacing:0px;word-spacing:0px;fill:#000000;fill-opacity:1;stroke:none;stroke-width:0.142509"
       d="m 159.10947,209.57354 -5.92204,-0.0317 V 195.7343 q 0,-3.16687 1.14007,-5.47868 1.17174,-2.31181 3.70523,-4.02192 1.55177,-1.04506 2.91352,-1.48843 1.36175,-0.47503 2.97685,-0.47503 0.4117,0 0.98173,0.0633 0.57004,0.0317 1.29842,0.15835 v 5.60535 q -0.79172,-0.22168 -1.64677,-0.22168 -1.64677,0 -3.16687,1.1084 -1.1084,0.79172 -1.71011,1.80512 -0.57003,1.01339 -0.57003,2.34348 z" />
    <path
       inkscape:connector-curvature="0"
       id="path4670"
       style="font-style:normal;font-variant:normal;font-weight:normal;font-stretch:normal;font-size:medium;line-height:1.25;font-family:Brandish;-inkscape-font-specification:'Brandish Italic';letter-spacing:0px;word-spacing:0px;fill:#000000;fill-opacity:1;stroke:none;stroke-width:0.142509"
       d="m 169.56359,186.10706 h 5.38367 v 23.40314 h -5.38367 z m 2.75517,-1.55177 q -1.52009,0 -2.37515,-0.98173 -0.85505,-0.98172 -0.85505,-2.31181 0,-1.29841 0.82338,-2.2168 0.85506,-0.9184 2.40682,-0.9184 1.39342,0 2.24848,1.0134 0.76005,0.91839 0.76005,2.21681 0,1.26674 -0.82339,2.24847 -0.79172,0.95006 -2.18514,0.95006 z" />
    <path
       inkscape:connector-curvature="0"
       id="path4672"
       style="font-style:normal;font-variant:normal;font-weight:normal;font-stretch:normal;font-size:medium;line-height:1.25;font-family:Brandish;-inkscape-font-specification:'Brandish Italic';letter-spacing:0px;word-spacing:0px;fill:#000000;fill-opacity:1;stroke:none;stroke-width:0.142509"
       d="m 178.75839,177.90487 h 5.32033 v 6.33374 h 3.67357 v 5.57368 h -3.67357 v 10.514 q 0,0.85505 0.28502,1.48842 0.31669,0.63338 0.98173,1.29842 1.26674,1.26675 2.97685,1.26675 0.57004,0 0.88672,-0.0633 v 5.19366 q -0.22168,0 -0.50669,0 -0.25335,0.0317 -0.34836,0.0317 -1.42509,0 -2.78684,-0.44336 -1.67844,-0.53837 -3.70524,-1.93179 -1.23507,-0.85506 -2.1218,-2.66017 -0.98172,-1.99513 -0.98172,-4.05359 z" />
    <path
       inkscape:connector-curvature="0"
       id="path4674"
       style="font-style:normal;font-variant:normal;font-weight:normal;font-stretch:normal;font-size:medium;line-height:1.25;font-family:Brandish;-inkscape-font-specification:'Brandish Italic';letter-spacing:0px;word-spacing:0px;fill:#000000;fill-opacity:1;stroke:none;stroke-width:0.142509"
       d="m 204.25958,209.54187 q -5.82704,0 -9.24725,-3.83191 -3.07186,-3.45188 -3.07186,-8.4872 0,-5.09866 3.1352,-8.64555 3.51522,-3.95858 9.46893,-3.95858 5.82703,0 9.24725,3.83191 3.07186,3.45188 3.07186,8.4872 0,5.09865 -3.1352,8.64555 -3.51522,3.95858 -9.46893,3.95858 z m 0.53837,-19.76125 q -3.45189,0 -5.47868,2.28015 -1.83679,2.05846 -1.83679,5.03531 0,2.88185 1.74178,4.84531 1.96346,2.18514 5.32034,2.18514 3.45188,0 5.47867,-2.28015 1.83679,-2.05846 1.83679,-5.03531 0,-2.88185 -1.74178,-4.84531 -1.96346,-2.18514 -5.32033,-2.18514 z" />
    <path
       style="fill:#666666;stroke:#800000;stroke-width:5.30999994;stroke-linecap:butt;stroke-linejoin:miter;stroke-miterlimit:4;stroke-dasharray:none;stroke-opacity:1"
       d="M 76.159423,138.52301 H 211.12283"
       id="path4693"
       inkscape:connector-curvature="0"
       sodipodi:nodetypes="cc" />
    <path
       style="fill:none;stroke:#800000;stroke-width:5.31000042;stroke-linecap:butt;stroke-linejoin:miter;stroke-miterlimit:4;stroke-dasharray:none;stroke-opacity:1"
       d="m 83.790855,218.17453 127.297855,0"
       id="path4693-4"
       inkscape:connector-curvature="0"
       sodipodi:nodetypes="cc" />
    <path
       style="opacity:1;fill:none;fill-opacity:1;stroke:#800000;stroke-width:5.30999994;stroke-linejoin:round;stroke-miterlimit:4;stroke-dasharray:none;stroke-dashoffset:0;stroke-opacity:1"
       id="path4835"
       sodipodi:type="arc"
       sodipodi:cx="211.08871"
       sodipodi:cy="178.35136"
       sodipodi:rx="14.597561"
       sodipodi:ry="39.82317"
       sodipodi:start="4.712389"
       sodipodi:end="1.5707963"
       sodipodi:open="true"
       d="m 211.08871,138.52819 a 14.597561,39.82317 0 0 1 14.59757,39.82317 14.597561,39.82317 0 0 1 -14.59757,39.82317" />
    <path
       style="opacity:1;fill:none;fill-opacity:1;stroke:#800000;stroke-width:5.30999994;stroke-linejoin:round;stroke-miterlimit:4;stroke-dasharray:none;stroke-dashoffset:0;stroke-opacity:1"
       id="path4859"
       sodipodi:type="arc"
       sodipodi:cx="-76.240173"
       sodipodi:cy="160.26045"
       sodipodi:rx="21.768293"
       sodipodi:ry="21.768293"
       sodipodi:start="4.712389"
       sodipodi:end="1.0471976"
       sodipodi:open="true"
       d="m -76.240173,138.49216 a 21.768293,21.768293 0 0 1 21.026557,16.13424 21.768293,21.768293 0 0 1 -10.142412,24.48595"
       transform="scale(-1,1)" />
    <path
       style="opacity:1;fill:none;fill-opacity:1;stroke:#800000;stroke-width:5.31000042;stroke-linejoin:round;stroke-miterlimit:4;stroke-dasharray:none;stroke-dashoffset:0;stroke-opacity:1"
       id="path4859-2"
       sodipodi:type="arc"
       sodipodi:cx="54.471882"
       sodipodi:cy="-197.96425"
       sodipodi:rx="21.768293"
       sodipodi:ry="21.768293"
       sodipodi:start="4.712389"
       sodipodi:end="1.0471976"
       sodipodi:open="true"
       d="m 54.471882,-219.73254 a 21.768293,21.768293 0 0 1 21.026557,16.13424 21.768293,21.768293 0 0 1 -10.142411,24.48595"
       transform="scale(1,-1)" />
    <g
       aria-label="O . 1    B E T A"
       style="font-style:normal;font-weight:normal;font-size:15.92565536px;line-height:1.25;font-family:sans-serif;letter-spacing:0px;word-spacing:0px;fill:#800000;fill-opacity:1;stroke:none;stroke-width:0.39814135"
       id="text834"
       transform="matrix(0.90746121,0,0,0.90746121,12.496384,19.624608)">
      <path
         d="m 87.324981,235.91968 c 2.134038,0 3.551421,-1.9907 3.551421,-6.16322 0,-4.17253 -1.417383,-6.05175 -3.551421,-6.05175 -2.134038,0 -3.551421,1.87922 -3.551421,6.05175 0,4.17252 1.417383,6.16322 3.551421,6.16322 z m 0,-2.03848 c -0.668878,0 -1.146647,-0.78036 -1.146647,-4.12474 0,-3.36032 0.477769,-4.02919 1.146647,-4.02919 0.668877,0 1.146647,0.66887 1.146647,4.02919 0,3.34438 -0.47777,4.12474 -1.146647,4.12474 z"
         style="font-style:normal;font-variant:normal;font-weight:bold;font-stretch:normal;font-family:'Noto Sans Mono CJK KR';-inkscape-font-specification:'Noto Sans Mono CJK KR Bold';fill:#800000;stroke:none;stroke-width:0.39814135"
         id="path836"
         inkscape:connector-curvature="0" />
      <path
         d="m 103.25064,235.91968 c 0.84406,0 1.48108,-0.6211 1.48108,-1.51293 0,-0.87591 -0.63702,-1.52887 -1.48108,-1.52887 -0.84406,0 -1.48109,0.65296 -1.48109,1.52887 0,0.89183 0.63703,1.51293 1.48109,1.51293 z"
         style="font-style:normal;font-variant:normal;font-weight:bold;font-stretch:normal;font-family:'Noto Sans Mono CJK KR';-inkscape-font-specification:'Noto Sans Mono CJK KR Bold';fill:#800000;stroke:none;stroke-width:0.39814135"
         id="path838"
         inkscape:connector-curvature="0" />
      <path
         d="m 115.95931,235.72858 h 6.60915 v -1.89516 h -1.97479 v -9.63502 h -1.71997 c -0.71665,0.47777 -1.4333,0.78036 -2.5481,0.98739 v 1.46516 h 1.927 v 7.18247 h -2.29329 z"
         style="font-style:normal;font-variant:normal;font-weight:bold;font-stretch:normal;font-family:'Noto Sans Mono CJK KR';-inkscape-font-specification:'Noto Sans Mono CJK KR Bold';fill:#800000;stroke:none;stroke-width:0.39814135"
         id="path840"
         inkscape:connector-curvature="0" />
      <path
         d="m 155.94863,235.72858 h 2.85069 c 2.14997,0 3.71068,-1.09887 3.71068,-3.4718 0,-1.64034 -0.76443,-2.50032 -2.07033,-2.80291 v -0.0637 c 1.17849,-0.38222 1.70404,-1.48109 1.70404,-2.56403 0,-2.21367 -1.49701,-2.93033 -3.55142,-2.93033 h -2.64366 z m 2.357,-6.99137 v -3.0418 h 0.31851 c 0.78036,0 1.19443,0.36629 1.19443,1.46516 0,1.08295 -0.39815,1.57664 -1.24221,1.57664 z m 0,5.15992 v -3.48772 h 0.39814 c 1.00332,0 1.51294,0.52554 1.51294,1.68812 0,1.21035 -0.52555,1.7996 -1.56072,1.7996 z"
         style="font-style:normal;font-variant:normal;font-weight:bold;font-stretch:normal;font-family:'Noto Sans Mono CJK KR';-inkscape-font-specification:'Noto Sans Mono CJK KR Bold';fill:#800000;stroke:none;stroke-width:0.39814135"
         id="path842"
         inkscape:connector-curvature="0" />
      <path
         d="m 172.01761,235.72858 h 6.06768 v -1.97478 h -3.69475 v -3.15328 h 2.97809 v -1.97479 h -2.97809 v -2.75513 h 3.56734 v -1.97479 h -5.94027 z"
         style="font-style:normal;font-variant:normal;font-weight:bold;font-stretch:normal;font-family:'Noto Sans Mono CJK KR';-inkscape-font-specification:'Noto Sans Mono CJK KR Bold';fill:#800000;stroke:none;stroke-width:0.39814135"
         id="path844"
         inkscape:connector-curvature="0" />
      <path
         d="m 189.66324,235.72858 h 2.37293 v -9.85798 h 2.46847 v -1.97479 h -7.3258 v 1.97479 h 2.4844 z"
         style="font-style:normal;font-variant:normal;font-weight:bold;font-stretch:normal;font-family:'Noto Sans Mono CJK KR';-inkscape-font-specification:'Noto Sans Mono CJK KR Bold';fill:#800000;stroke:none;stroke-width:0.39814135"
         id="path846"
         inkscape:connector-curvature="0" />
      <path
         d="m 205.90741,230.85533 0.20703,-1.28998 c 0.20704,-1.22628 0.42999,-2.57996 0.58925,-3.86994 h 0.0637 c 0.20704,1.28998 0.38222,2.64366 0.60518,3.86994 l 0.20703,1.28998 z m 2.45255,4.87325 h 2.27737 l -2.24552,-11.83277 h -3.24883 l -2.24552,11.83277 h 2.24552 l 0.47777,-3.02588 h 2.26144 z"
         style="font-style:normal;font-variant:normal;font-weight:bold;font-stretch:normal;font-family:'Noto Sans Mono CJK KR';-inkscape-font-specification:'Noto Sans Mono CJK KR Bold';fill:#800000;stroke:none;stroke-width:0.39814135"
         id="path848"
         inkscape:connector-curvature="0" />
    </g>
  </g>
</svg>
